<svg width="149" height="30" viewBox="0 0 149 30" fill="none" xmlns="http://www.w3.org/2000/svg">
<path d="M35.9301 7.23706H42.9361C44.5588 7.23706 45.9981 7.54363 47.254 8.15678C48.5099 8.76993 49.4835 9.63975 50.1749 10.7662C50.8664 11.8927 51.2121 13.2117 51.2121 14.7232C51.2121 16.2347 50.8664 17.5536 50.1749 18.6801C49.4835 19.8066 48.5099 20.6764 47.254 21.2896C45.9981 21.9027 44.5588 22.2093 42.9361 22.2093H35.9301V7.23706ZM42.7668 18.8298C44.0367 18.8298 45.0527 18.4662 45.8147 17.739C46.5908 17.0118 46.9788 16.0065 46.9788 14.7232C46.9788 13.4398 46.5908 12.4346 45.8147 11.7073C45.0527 10.9801 44.0367 10.6165 42.7668 10.6165H40.121V18.8298H42.7668Z" fill="white"/>
<path d="M66.2607 22.2093L66.2183 14.274L62.4084 20.7334H60.5458L56.7571 14.4879V22.2093H52.8837V7.23706H56.3337L61.5406 15.8782L66.6205 7.23706H70.0706L70.1129 22.2093H66.2607Z" fill="white"/>
<path d="M83.0052 19.3004H76.74L75.5759 22.2093H71.3003L77.8407 7.23706H81.9681L88.5296 22.2093H84.1694L83.0052 19.3004ZM81.7776 16.1776L79.8726 11.3865L77.9677 16.1776H81.7776Z" fill="white"/>
<path d="M96.1945 18.231H93.9086V22.2093H89.7177V7.23706H96.4909C97.8314 7.23706 98.9955 7.46521 99.9833 7.92151C100.971 8.36354 101.733 9.00521 102.269 9.84651C102.805 10.6735 103.074 11.6503 103.074 12.7768C103.074 13.8605 102.82 14.8087 102.312 15.6215C101.818 16.42 101.105 17.0474 100.174 17.5037L103.37 22.2093H98.8826L96.1945 18.231ZM98.8403 12.7768C98.8403 12.0781 98.6216 11.5362 98.1842 11.1512C97.7467 10.7662 97.0976 10.5737 96.2369 10.5737H93.9086V14.9584H96.2369C97.0976 14.9584 97.7467 14.7731 98.1842 14.4023C98.6216 14.0173 98.8403 13.4755 98.8403 12.7768Z" fill="white"/>
<path d="M111.1 16.7765L109.534 18.4662V22.2093H105.386V7.23706H109.534V13.4612L115.27 7.23706H119.884L113.831 13.8676L120.202 22.2093H115.334L111.1 16.7765Z" fill="white"/>
<path d="M133.73 18.9368V22.2093H121.835V7.23706H133.455V10.5096H125.983V13.0334H132.566V16.199H125.983V18.9368H133.73Z" fill="white"/>
<path d="M139.743 10.5951H135.192V7.23706H148.463V10.5951H143.934V22.2093H139.743V10.5951Z" fill="white"/>
<path d="M20.4079 29.3748H5.32333C5.31382 29.3748 5.30431 29.3748 5.2948 29.3748L9.40756 22.1547H16.3317C16.7084 22.1547 17.0566 21.9497 17.2454 21.6159C17.7399 20.7388 18.7502 18.9506 19.5995 17.4452C20.0472 16.6525 20.4503 15.9383 20.7114 15.4764C20.8051 15.3099 20.8526 15.1234 20.8526 14.9376C20.8526 14.7511 20.8051 14.5646 20.7114 14.3981C20.4503 13.9362 20.0472 13.222 19.5995 12.4293C18.7502 10.9239 17.7399 9.13568 17.2454 8.25936C17.0566 7.92556 16.7084 7.7198 16.3317 7.7198H9.40756L5.2948 0.500496C5.30431 0.499756 5.31382 0.499756 5.32333 0.499756H20.4079C20.7846 0.499756 21.1328 0.705514 21.3216 1.03932L28.8638 14.3981C28.9575 14.5646 29.005 14.7511 29.005 14.9376C29.005 15.1234 28.9575 15.3099 28.8638 15.4764L21.3216 28.8359C21.1328 29.169 20.7846 29.3748 20.4079 29.3748Z" fill="#49BC74"/>
<path d="M3.94816 14.9342C3.94962 14.7462 3.9028 14.5575 3.80697 14.388C3.05128 13.0498 1.09512 9.58452 0.339431 8.24635C0.151423 7.91255 0.151423 7.50177 0.339431 7.16871L3.82892 0.987818C3.93645 0.825727 4.06374 0.717667 4.18737 0.645874L11.9235 14.388C12.0193 14.5582 12.0661 14.7477 12.0647 14.9379C12.0661 15.1274 12.0193 15.3169 11.9235 15.4871L4.18737 29.2293C4.06374 29.1575 3.93645 29.0494 3.82892 28.8873L0.339431 22.7064C0.151423 22.3734 0.151423 21.9626 0.339431 21.6295C1.09512 20.2906 3.05128 16.8253 3.80697 15.4871C3.9028 15.3184 3.94962 15.1296 3.94816 14.9409V14.9379V14.9342Z" fill="#49BC74"/>
</svg>
